<?xml version="1.0" encoding="utf-8"?>
<svg xmlns="http://www.w3.org/2000/svg" xmlns:xlink="http://www.w3.org/1999/xlink" viewBox="0 0 1052 32">
  <svg id="icon-close-black" viewBox="0 0 32 32" x="0" y="0">
    <path d="M32 3.223 28.777 0 16 12.777 3.223 0 0 3.223 12.777 16 0 28.777 3.223 32 16 19.223 28.777 32 32 28.777 19.223 16 32 3.223z"/>
  </svg>
  <svg id="icon-email-black" viewBox="0 0 24 32" x="68" y="0">
    <path d="M20 8H4c-1.1 0-1.99.9-1.99 2L2 22c0 1.1.9 2 2 2h16c1.1 0 2-.9 2-2V10c0-1.1-.9-2-2-2zm-.4 4.25-7.07 4.42c-.32.2-.74.2-1.06 0L4.4 12.25c-.25-.16-.4-.43-.4-.72 0-.67.73-1.07 1.3-.72L12 15l6.7-4.19c.57-.35 1.3.05 1.3.72 0 .29-.15.56-.4.72z"/>
  </svg>
  <svg id="icon-person-black" viewBox="0 0 32 32" x="136" y="0">
    <path fill="#4d5ae5" d="M16 16c2.947 0 5.333-2.387 5.333-5.333S18.946 5.334 16 5.334c-2.947 0-5.333 2.387-5.333 5.333S13.054 16 16 16zm0 2.667c-3.56 0-10.667 1.787-10.667 5.333v1.333c0 .733.6 1.333 1.333 1.333h18.667c.733 0 1.333-.6 1.333-1.333V24c0-3.547-7.107-5.333-10.667-5.333z"/>
  </svg>
  <svg id="icon-phone-black" viewBox="0 0 24 32" x="204" y="0">
    <path d="m19.635 18.487-2.451-.28c-.589-.067-1.167.135-1.582.55l-1.775 1.775c-2.731-1.389-4.969-3.618-6.359-6.359l1.785-1.785c.415-.415.618-.994.55-1.582l-.28-2.432c-.116-.975-.936-1.708-1.92-1.708H5.934c-1.09 0-1.997.907-1.93 1.997.511 8.24 7.102 14.821 15.332 15.332 1.09.068 1.997-.839 1.997-1.93v-1.669c.01-.975-.724-1.795-1.698-1.911z"/>
  </svg>
</svg>
